<svg width="48" height="48" viewBox="0 0 48 48" fill="none" xmlns="http://www.w3.org/2000/svg">
<g clip-path="url(#clip0_8_6194)">
<path d="M41.5502 29.2688C41.1677 29.0447 40.678 29.1728 40.4555 29.5544L31.2823 45.1999C30.6196 46.3466 29.1497 46.742 28.0381 46.1002L26.2512 44.9422C25.8799 44.7013 25.3845 44.807 25.1444 45.1783C24.9035 45.5488 25.0099 46.0449 25.3804 46.285L27.2026 47.4646C27.8308 47.8279 28.5182 47.9999 29.1968 47.9999C30.5804 47.9999 31.9264 47.2838 32.665 46.0049L41.8349 30.3634C42.0583 29.9825 41.9312 29.492 41.5502 29.2688Z" fill="#272B2F"/>
<path d="M43.9709 0H31.167C28.6911 0 26.8466 0.788206 24.9996 2.63517C24.6868 2.94811 24.6868 3.45385 24.9996 3.7667C25.3126 4.07963 25.8183 4.07963 26.1311 3.7667C27.69 2.20782 29.1024 1.60042 31.167 1.60042H43.9709C45.2944 1.60042 46.3716 2.67756 46.3716 4.00114V16.8051C46.3716 18.8705 45.7642 20.2821 44.2045 21.8409L20.439 45.6402C19.5315 46.5461 17.9502 46.5468 17.0444 45.6402L2.33193 30.9277C1.87823 30.474 1.62849 29.8714 1.62849 29.2295C1.62849 28.5886 1.87813 27.9859 2.33108 27.533L23.8112 6.08339C24.1416 6.16742 24.473 6.25144 24.8163 6.34344C28.0717 7.21567 30.6405 8.11679 32.5554 8.92103C32.1785 9.61883 31.9672 10.4007 31.9672 11.2033C31.9672 13.8513 34.1207 16.0048 36.7687 16.0048C39.4167 16.0048 41.5701 13.8513 41.5701 11.2033C41.5701 8.55529 39.4167 6.40186 36.7687 6.40186C36.3261 6.40186 35.9685 6.76038 35.9685 7.20207C35.9685 7.64377 36.3261 8.00228 36.7687 8.00228C38.5341 8.00228 39.9696 9.43793 39.9696 11.2032C39.9696 12.9686 38.534 14.4041 36.7687 14.4041C35.0034 14.4041 33.5678 12.9685 33.5678 11.2032C33.5678 10.627 33.7254 10.0645 34.0159 9.57475C35.402 10.2381 36.2686 10.7975 36.6111 11.1544C36.4647 11.1961 36.2382 11.2425 35.8965 11.272C35.4564 11.3112 35.1308 11.6994 35.17 12.1395C35.2068 12.5556 35.5557 12.8701 35.9662 12.8701C35.9894 12.8701 36.0134 12.8685 36.0374 12.8669C36.5296 12.823 38.0268 12.6909 38.3149 11.6177C39.1031 8.67364 27.5533 5.41982 25.2301 4.79722C21.6762 3.84491 18.2632 3.19352 15.6184 2.96311C12.3686 2.67906 10.7857 3.04873 10.4881 4.16103C10.3456 4.69482 9.96556 6.11199 16.4539 8.67036C16.8645 8.83278 17.3302 8.63116 17.4918 8.21985C17.6535 7.80854 17.4518 7.34358 17.0405 7.18191C13.9059 5.94554 12.6071 5.03964 12.191 4.61314C13.1777 4.32346 16.5524 4.40748 21.9868 5.64301L1.2004 26.4007C0.44417 27.1569 0.0280762 28.1612 0.0280762 29.2295C0.0280762 30.2987 0.44417 31.3037 1.2004 32.0592L15.9128 46.7716C16.6674 47.527 17.6725 47.9432 18.7409 47.9432C19.81 47.9432 20.8143 47.5271 21.5705 46.7709L45.3368 22.9725C47.1845 21.1255 47.972 19.281 47.972 16.8051V4.00124C47.9721 1.79491 46.1772 0 43.9709 0Z" fill="#272B2F"/>
<path d="M26.2015 21.0409C25.8886 20.7279 25.3828 20.7279 25.0699 21.0409L24.6378 21.473C24.0048 21.0537 23.2494 20.8064 22.4348 20.8064C20.2285 20.8064 18.4335 22.6013 18.4335 24.8076C18.4335 26 18.9257 26.9427 19.3546 27.6317C19.7548 28.2743 20.034 29.1897 20.034 29.6091C20.034 30.9327 18.9569 32.0098 17.6333 32.0098C16.3097 32.0098 15.2326 30.9327 15.2326 29.6091C15.2326 29.1233 15.3774 28.6552 15.6511 28.2551C15.9008 27.891 15.8072 27.3925 15.443 27.1428C15.0782 26.8939 14.5804 26.9868 14.3307 27.3509C13.8738 28.0183 13.6321 28.7993 13.6321 29.6092C13.6321 30.4238 13.8794 31.1792 14.2987 31.8122L13.8665 32.2443C13.5536 32.5572 13.5536 33.063 13.8665 33.3759C14.0226 33.5319 14.2275 33.6103 14.4323 33.6103C14.6372 33.6103 14.842 33.5319 14.9981 33.3759L15.4302 32.9437C16.0632 33.363 16.8186 33.6103 17.6332 33.6103C19.8395 33.6103 21.6345 31.8154 21.6345 29.6091C21.6345 28.8297 21.2472 27.6421 20.7134 26.7851C20.2373 26.0209 20.034 25.4295 20.034 24.8076C20.034 23.4841 21.1111 22.4069 22.4347 22.4069C23.0765 22.4069 23.6566 22.663 24.0871 23.0751C24.1007 23.0895 24.1055 23.1087 24.1191 23.1231C24.1336 23.1367 24.1527 23.1415 24.1671 23.1551C24.5793 23.5856 24.8353 24.1658 24.8353 24.8075C24.8353 25.4493 24.5848 26.0535 24.1303 26.508C23.8173 26.8201 23.8173 27.3267 24.1294 27.6396C24.4407 27.9525 24.9481 27.9517 25.261 27.6404C26.018 26.8833 26.4357 25.8775 26.4357 24.8075C26.4357 23.9929 26.1884 23.2375 25.7691 22.6045L26.2013 22.1724C26.5144 21.8595 26.5144 21.3537 26.2015 21.0409Z" fill="#272B2F"/>
</g>
<defs>
<clipPath id="clip0_8_6194">
<rect width="48" height="48" fill="white"/>
</clipPath>
</defs>
</svg>
