<svg width="24" height="24" viewBox="0 0 24 24" fill="none" xmlns="http://www.w3.org/2000/svg">
<g clip-path="url(#clip0_1_2029)">
<path d="M4.00008 6.41408L0.75708 3.17208L2.17208 1.75708L5.41408 5.00008H20.6561C20.8119 5.00007 20.9657 5.03649 21.1049 5.10645C21.2442 5.1764 21.3652 5.27794 21.4583 5.40298C21.5514 5.52801 21.6139 5.67306 21.641 5.82657C21.668 5.98007 21.6588 6.13777 21.6141 6.28708L19.2141 14.2871C19.1523 14.4932 19.0258 14.6738 18.8532 14.8023C18.6806 14.9307 18.4712 15.0001 18.2561 15.0001H6.00008V17.0001H17.0001V19.0001H5.00008C4.73486 19.0001 4.48051 18.8947 4.29297 18.7072C4.10544 18.5197 4.00008 18.2653 4.00008 18.0001V6.41408ZM6.00008 7.00008V13.0001H17.5121L19.3121 7.00008H6.00008ZM5.50008 23.0001C5.10226 23.0001 4.72072 22.842 4.43942 22.5607C4.15812 22.2794 4.00008 21.8979 4.00008 21.5001C4.00008 21.1023 4.15812 20.7207 4.43942 20.4394C4.72072 20.1581 5.10226 20.0001 5.50008 20.0001C5.8979 20.0001 6.27944 20.1581 6.56074 20.4394C6.84204 20.7207 7.00008 21.1023 7.00008 21.5001C7.00008 21.8979 6.84204 22.2794 6.56074 22.5607C6.27944 22.842 5.8979 23.0001 5.50008 23.0001ZM17.5001 23.0001C17.1023 23.0001 16.7207 22.842 16.4394 22.5607C16.1581 22.2794 16.0001 21.8979 16.0001 21.5001C16.0001 21.1023 16.1581 20.7207 16.4394 20.4394C16.7207 20.1581 17.1023 20.0001 17.5001 20.0001C17.8979 20.0001 18.2794 20.1581 18.5607 20.4394C18.842 20.7207 19.0001 21.1023 19.0001 21.5001C19.0001 21.8979 18.842 22.2794 18.5607 22.5607C18.2794 22.842 17.8979 23.0001 17.5001 23.0001Z" fill="#272B2F"/>
</g>
<defs>
<clipPath id="clip0_1_2029">
<rect width="24" height="24" fill="white"/>
</clipPath>
</defs>
</svg>
