<svg width="24" height="25" viewBox="0 0 24 25" fill="none" xmlns="http://www.w3.org/2000/svg">
<g clip-path="url(#clip0_401_10267)">
<path d="M10 3.5V5.5H5V19.5H19V14.5H21V20.5C21 20.7652 20.8946 21.0196 20.7071 21.2071C20.5196 21.3946 20.2652 21.5 20 21.5H4C3.73478 21.5 3.48043 21.3946 3.29289 21.2071C3.10536 21.0196 3 20.7652 3 20.5V4.5C3 4.23478 3.10536 3.98043 3.29289 3.79289C3.48043 3.60536 3.73478 3.5 4 3.5H10ZM17.586 5.5H13V3.5H21V11.5H19V6.914L12 13.914L10.586 12.5L17.586 5.5Z" fill="#78808A"/>
</g>
<defs>
<clipPath id="clip0_401_10267">
<rect width="24" height="24" fill="white" transform="translate(0 0.5)"/>
</clipPath>
</defs>
</svg>
