<svg width="24" height="24" viewBox="0 0 24 24" fill="none" xmlns="http://www.w3.org/2000/svg">
<path fill-rule="evenodd" clip-rule="evenodd" d="M21.377 4.47636C22.4117 4.74182 23.2249 5.51636 23.4998 6.49818C24 8.28 24 12 24 12C24 12 24 15.72 23.4998 17.5018C23.2211 18.4873 22.4079 19.2618 21.377 19.5236C19.5062 20 12 20 12 20C12 20 4.49761 20 2.62297 19.5236C1.58829 19.2582 0.775056 18.4836 0.500159 17.5018C0 15.72 0 12 0 12C0 12 0 8.28 0.500159 6.49818C0.778874 5.51273 1.59211 4.73818 2.62297 4.47636C4.49761 4 12 4 12 4C12 4 19.5062 4 21.377 4.47636ZM15.8371 12L9.60229 15.4291V8.57091L15.8371 12Z" fill="#272B2F"/>
</svg>
