<svg width="105" height="27" viewBox="0 0 105 27" fill="none" xmlns="http://www.w3.org/2000/svg">
<path d="M0.93 1.28915H6.6488V21.3402H19.0395V26H0.93V1.28915ZM33.9295 26.4236C31.3642 26.4236 29.0461 25.8706 26.9751 24.7645C24.9277 23.6584 23.3156 22.1404 22.1389 20.2106C20.9857 18.2573 20.4091 16.0686 20.4091 13.6446C20.4091 11.2206 20.9857 9.04365 22.1389 7.11385C23.3156 5.16052 24.9277 3.6308 26.9751 2.5247C29.0461 1.41859 31.3642 0.865539 33.9295 0.865539C36.4947 0.865539 38.801 1.41859 40.8485 2.5247C42.896 3.6308 44.5081 5.16052 45.6848 7.11385C46.8615 9.04365 47.4498 11.2206 47.4498 13.6446C47.4498 16.0686 46.8615 18.2573 45.6848 20.2106C44.5081 22.1404 42.896 23.6584 40.8485 24.7645C38.801 25.8706 36.4947 26.4236 33.9295 26.4236ZM33.9295 21.552C35.3886 21.552 36.7065 21.2226 37.8832 20.5636C39.0599 19.8811 39.9777 18.9398 40.6367 17.7395C41.3192 16.5393 41.6604 15.1743 41.6604 13.6446C41.6604 12.1149 41.3192 10.7499 40.6367 9.54964C39.9777 8.3494 39.0599 7.4198 37.8832 6.76084C36.7065 6.07835 35.3886 5.73711 33.9295 5.73711C32.4703 5.73711 31.1524 6.07835 29.9757 6.76084C28.799 7.4198 27.8694 8.3494 27.1869 9.54964C26.528 10.7499 26.1985 12.1149 26.1985 13.6446C26.1985 15.1743 26.528 16.5393 27.1869 17.7395C27.8694 18.9398 28.799 19.8811 29.9757 20.5636C31.1524 21.2226 32.4703 21.552 33.9295 21.552ZM68.5864 13.2563H73.811V23.2818C72.4696 24.2938 70.9163 25.0704 69.1512 25.6117C67.3862 26.153 65.6094 26.4236 63.8208 26.4236C61.2555 26.4236 58.9492 25.8823 56.9017 24.7998C54.8543 23.6937 53.2422 22.1757 52.0655 20.2459C50.9123 18.2926 50.3357 16.0921 50.3357 13.6446C50.3357 11.197 50.9123 9.00835 52.0655 7.07855C53.2422 5.12522 54.866 3.60727 56.937 2.5247C59.008 1.41859 61.3379 0.865539 63.9267 0.865539C66.0918 0.865539 68.0569 1.23032 69.822 1.95988C71.587 2.68943 73.0697 3.74847 74.2699 5.13699L70.5986 8.5259C68.8335 6.6667 66.7037 5.73711 64.2091 5.73711C62.6323 5.73711 61.232 6.06658 60.0082 6.72554C58.7845 7.3845 57.8313 8.31409 57.1488 9.51434C56.4663 10.7146 56.1251 12.0913 56.1251 13.6446C56.1251 15.1743 56.4663 16.5393 57.1488 17.7395C57.8313 18.9398 58.7727 19.8811 59.9729 20.5636C61.1967 21.2226 62.5852 21.552 64.1385 21.552C65.7859 21.552 67.2685 21.199 68.5864 20.493V13.2563ZM91.2316 26.4236C88.6664 26.4236 86.3483 25.8706 84.2773 24.7645C82.2298 23.6584 80.6177 22.1404 79.441 20.2106C78.2878 18.2573 77.7112 16.0686 77.7112 13.6446C77.7112 11.2206 78.2878 9.04365 79.441 7.11385C80.6177 5.16052 82.2298 3.6308 84.2773 2.5247C86.3483 1.41859 88.6664 0.865539 91.2316 0.865539C93.7968 0.865539 96.1032 1.41859 98.1506 2.5247C100.198 3.6308 101.81 5.16052 102.987 7.11385C104.164 9.04365 104.752 11.2206 104.752 13.6446C104.752 16.0686 104.164 18.2573 102.987 20.2106C101.81 22.1404 100.198 23.6584 98.1506 24.7645C96.1032 25.8706 93.7968 26.4236 91.2316 26.4236ZM91.2316 21.552C92.6907 21.552 94.0086 21.2226 95.1853 20.5636C96.362 19.8811 97.2799 18.9398 97.9388 17.7395C98.6213 16.5393 98.9626 15.1743 98.9626 13.6446C98.9626 12.1149 98.6213 10.7499 97.9388 9.54964C97.2799 8.3494 96.362 7.4198 95.1853 6.76084C94.0086 6.07835 92.6907 5.73711 91.2316 5.73711C89.7725 5.73711 88.4546 6.07835 87.2779 6.76084C86.1012 7.4198 85.1716 8.3494 84.4891 9.54964C83.8301 10.7499 83.5006 12.1149 83.5006 13.6446C83.5006 15.1743 83.8301 16.5393 84.4891 17.7395C85.1716 18.9398 86.1012 19.8811 87.2779 20.5636C88.4546 21.2226 89.7725 21.552 91.2316 21.552Z" fill="#272B2F"/>
</svg>
