<svg width="433" height="246" viewBox="0 0 433 246" fill="none" xmlns="http://www.w3.org/2000/svg">
<path d="M0 34.1667C0 15.2969 15.2887 0 34.1483 0H433V210.467C433 230.091 417.1 246 397.486 246H0V34.1667Z" fill="#FB5935"/>
<path d="M41 135.374V45H92.159C110.024 45 118.551 56.6524 118.551 68.0339C118.551 79.2798 111.648 86.8675 103.122 88.7644C112.731 90.2548 120.31 99.4683 120.31 110.85C120.31 123.993 111.513 135.374 93.7831 135.374H41ZM64.2787 79.9573H86.8807C91.6176 79.9573 94.8658 76.57 94.8658 72.0987C94.8658 67.6274 91.6176 64.3756 86.8807 64.3756H64.2787V79.9573ZM64.2787 115.999H87.6927C93.2417 115.999 96.6252 112.611 96.6252 107.733C96.6252 103.127 93.377 99.1973 87.6927 99.1973H64.2787V115.999Z" fill="white"/>
<path d="M128.117 102.585C128.117 82.1252 143.411 68.3049 163.848 68.3049C177.923 68.3049 186.72 74.5376 190.645 80.3638L177.111 92.9647C174.539 89.1708 170.344 86.732 164.795 86.732C156.133 86.732 149.501 92.6937 149.501 102.585C149.501 112.476 156.133 118.573 164.795 118.573C170.344 118.573 174.539 115.863 177.111 112.205L190.645 124.941C186.72 130.632 177.923 137 163.848 137C143.411 137 128.117 123.18 128.117 102.585Z" fill="white"/>
<path d="M195.788 102.585C195.788 83.6156 210.134 68.3049 230.571 68.3049C249.925 68.3049 264 82.5317 264 104.753V109.224H217.443C218.661 115.321 224.345 120.876 234.09 120.876C239.909 120.876 246.406 118.573 250.06 115.321L258.857 128.328C252.361 134.155 241.533 137 231.518 137C211.352 137 195.788 123.857 195.788 102.585ZM230.571 84.4286C221.503 84.4286 217.984 90.9323 217.172 95.6745H244.105C243.563 91.0677 240.18 84.4286 230.571 84.4286Z" fill="white"/>
<path d="M69.6685 202.864L59.7376 186.675L55.4279 191.882V202.864H41V157.136H55.4279V175.408L69.2 157.136H86.626L69.9495 177.964L87.4692 202.864H69.6685Z" fill="white"/>
<path d="M118.845 202.864V198.32C116.034 201.728 110.601 204 104.792 204C97.859 204 89.2397 199.266 89.2397 188.947C89.2397 177.87 97.859 174.556 104.792 174.556C110.788 174.556 116.128 176.45 118.845 179.858V174.083C118.845 170.107 115.472 167.456 109.664 167.456C105.167 167.456 100.482 169.16 96.8284 172.284L91.6756 163.101C97.4842 158.083 105.26 156 112.193 156C123.061 156 133.273 160.071 133.273 174.272V202.864H118.845ZM118.845 191.124V187.053C117.346 184.97 113.973 183.834 110.788 183.834C106.947 183.834 103.574 185.538 103.574 189.136C103.574 192.734 106.947 194.438 110.788 194.438C113.973 194.438 117.346 193.302 118.845 191.124Z" fill="white"/>
<path d="M187.31 202.864V173.988L176.255 202.864H168.948L157.892 173.988V202.864H143.746V157.136H162.483L172.508 183.361L182.626 157.136H201.364V202.864H187.31Z" fill="white"/>
<path d="M211.816 202.864V157.136H226.244V182.32L242.358 157.136H256.879V202.864H242.452V176.45L225.588 202.864H211.816Z" fill="white"/>
<path d="M267.351 202.864V157.136H281.779V172.852H297.987V157.136H312.415V202.864H297.987V185.538H281.779V202.864H267.351Z" fill="white"/>
<path d="M337.315 157.136V170.201H352.024C363.266 170.201 368.7 178.343 368.7 186.58C368.7 194.722 362.798 202.864 352.024 202.864H322.887V157.136H337.315ZM373.572 202.864V157.136H388V202.864H373.572ZM337.315 181.941V191.124H349.307C352.492 191.124 354.085 189.041 354.085 186.58C354.085 184.024 352.492 181.941 349.307 181.941H337.315Z" fill="white"/>
<path d="M407 65C407 86.5391 389.539 104 368 104C346.461 104 329 86.5391 329 65C329 43.4609 346.461 26 368 26C389.539 26 407 43.4609 407 65Z" fill="white"/>
<path d="M344.438 71.2148C343.415 71.2148 342.586 70.91 341.952 70.3004C341.317 69.6909 341 68.8882 341 67.8926C341 66.9173 341.317 66.1248 341.952 65.5152C342.586 64.9057 343.415 64.6009 344.438 64.6009C345.461 64.6009 346.29 64.9057 346.924 65.5152C347.558 66.1248 347.876 66.9173 347.876 67.8926C347.876 68.8882 347.558 69.6909 346.924 70.3004C346.29 70.91 345.461 71.2148 344.438 71.2148Z" fill="#FB5935"/>
<path d="M361.964 55C363.683 55 365.187 55.3353 366.476 56.0058C367.765 56.656 368.747 57.5907 369.423 58.8099C370.118 60.0087 370.466 61.4006 370.466 62.9855V63.1684C370.466 64.7533 370.118 66.1553 369.423 67.3745C368.747 68.5936 367.765 69.5385 366.476 70.209C365.187 70.8795 363.683 71.2148 361.964 71.2148C360.184 71.2148 358.659 70.7983 357.39 69.9652V76H351.436V55.3962H356.961L357.083 56.5239C358.455 55.508 360.081 55 361.964 55ZM364.327 62.9855C364.327 62.1524 364.02 61.5123 363.407 61.0653C362.813 60.6183 361.954 60.3948 360.828 60.3948C360.092 60.3948 359.416 60.4862 358.802 60.6691C358.209 60.8316 357.738 61.0755 357.39 61.4006V64.7533C357.759 65.0784 358.24 65.3425 358.833 65.5457C359.447 65.7286 360.112 65.82 360.828 65.82C361.933 65.82 362.793 65.5965 363.407 65.1495C364.02 64.6821 364.327 64.0218 364.327 63.1684V62.9855Z" fill="#FB5935"/>
<path d="M392 55.3962V56.2192L384.265 72.4949C383.733 73.6328 382.976 74.4964 381.994 75.0856C381.032 75.6952 379.691 76 377.973 76H372.816V70.8186H377.389C377.635 70.8186 377.809 70.8084 377.911 70.7881L370.606 56.2192V55.3962H376.96L381.472 64.8142L385.646 55.3962H392Z" fill="#FB5935"/>
</svg>
