<svg version="1.1" xmlns="http://www.w3.org/2000/svg" xmlns:xlink="http://www.w3.org/1999/xlink">
    <symbol id="profile" viewBox="0 0 24 24">
        <path d="M4 22C4 19.8783 4.84285 17.8434 6.34315 16.3431C7.84344 14.8429 9.87827 14 12 14C14.1217 14 16.1566 14.8429 17.6569 16.3431C19.1571 17.8434 20 19.8783 20 22H18C18 20.4087 17.3679 18.8826 16.2426 17.7574C15.1174 16.6321 13.5913 16 12 16C10.4087 16 8.88258 16.6321 7.75736 17.7574C6.63214 18.8826 6 20.4087 6 22H4ZM12 13C8.685 13 6 10.315 6 7C6 3.685 8.685 1 12 1C15.315 1 18 3.685 18 7C18 10.315 15.315 13 12 13ZM12 11C14.21 11 16 9.21 16 7C16 4.79 14.21 3 12 3C9.79 3 8 4.79 8 7C8 9.21 9.79 11 12 11Z"/>
    </symbol>
 
    <symbol id="favorite" viewBox="0 0 24 24">
        <path d="M16.5 3C19.538 3 22 5.5 22 9C22 16 14.5 20 12 21.5C9.5 20 2 16 2 9C2 5.5 4.5 3 7.5 3C9.36 3 11 4 12 5C13 4 14.64 3 16.5 3ZM12.934 18.604C13.815 18.048 14.61 17.495 15.354 16.903C18.335 14.533 20 11.943 20 9C20 6.64 18.463 5 16.5 5C15.424 5 14.26 5.57 13.414 6.414L12 7.828L10.586 6.414C9.74 5.57 8.576 5 7.5 5C5.56 5 4 6.656 4 9C4 11.944 5.666 14.533 8.645 16.903C9.39 17.495 10.185 18.048 11.066 18.603C11.365 18.792 11.661 18.973 12 19.175C12.339 18.973 12.635 18.792 12.934 18.604Z"/>
    </symbol>

    <symbol id="cart" viewBox="0 0 24 24">
        <path d="M4.00008 6.41408L0.75708 3.17208L2.17208 1.75708L5.41408 5.00008H20.6561C20.8119 5.00007 20.9657 5.03649 21.1049 5.10645C21.2442 5.1764 21.3652 5.27794 21.4583 5.40298C21.5514 5.52801 21.6139 5.67306 21.641 5.82657C21.668 5.98007 21.6588 6.13777 21.6141 6.28708L19.2141 14.2871C19.1523 14.4932 19.0258 14.6738 18.8532 14.8023C18.6806 14.9307 18.4712 15.0001 18.2561 15.0001H6.00008V17.0001H17.0001V19.0001H5.00008C4.73486 19.0001 4.48051 18.8947 4.29297 18.7072C4.10544 18.5197 4.00008 18.2653 4.00008 18.0001V6.41408ZM6.00008 7.00008V13.0001H17.5121L19.3121 7.00008H6.00008ZM5.50008 23.0001C5.10226 23.0001 4.72072 22.842 4.43942 22.5607C4.15812 22.2794 4.00008 21.8979 4.00008 21.5001C4.00008 21.1023 4.15812 20.7207 4.43942 20.4394C4.72072 20.1581 5.10226 20.0001 5.50008 20.0001C5.8979 20.0001 6.27944 20.1581 6.56074 20.4394C6.84204 20.7207 7.00008 21.1023 7.00008 21.5001C7.00008 21.8979 6.84204 22.2794 6.56074 22.5607C6.27944 22.842 5.8979 23.0001 5.50008 23.0001ZM17.5001 23.0001C17.1023 23.0001 16.7207 22.842 16.4394 22.5607C16.1581 22.2794 16.0001 21.8979 16.0001 21.5001C16.0001 21.1023 16.1581 20.7207 16.4394 20.4394C16.7207 20.1581 17.1023 20.0001 17.5001 20.0001C17.8979 20.0001 18.2794 20.1581 18.5607 20.4394C18.842 20.7207 19.0001 21.1023 19.0001 21.5001C19.0001 21.8979 18.842 22.2794 18.5607 22.5607C18.2794 22.842 17.8979 23.0001 17.5001 23.0001Z"/>
    </symbol>

    <symbol id="compare" viewBox="0 0 24 24">
        <path d="M1.5 9H3.5V21H1.5V9ZM7.5 3H9.5V21H7.5V3ZM13.5 12H15.5V21H13.5V12ZM19.5 6H21.5V21H19.5V6Z"/>
    </symbol>

    <symbol id="search" viewBox="0 0 24 24">
        <path d="M18.031 16.617L22.314 20.899L20.899 22.314L16.617 18.031C15.0237 19.3082 13.042 20.0029 11 20C6.032 20 2 15.968 2 11C2 6.032 6.032 2 11 2C15.968 2 20 6.032 20 11C20.0029 13.042 19.3082 15.0237 18.031 16.617ZM16.025 15.875C17.2941 14.5699 18.0029 12.8204 18 11C18 7.132 14.867 4 11 4C7.132 4 4 7.132 4 11C4 14.867 7.132 18 11 18C12.8204 18.0029 14.5699 17.2941 15.875 16.025L16.025 15.875Z"/>
    </symbol>

    <symbol id="insta" viewBox="0 0 24 24">
        <path d="M12 2.775C15 2.775 15.36 2.78625 16.5458 2.84025C17.2593 2.84867 17.9662 2.97984 18.6353 3.228C19.1237 3.40832 19.5656 3.69588 19.9283 4.0695C20.3019 4.43218 20.5894 4.87402 20.7698 5.3625C21.0179 6.0316 21.1491 6.73841 21.1575 7.452C21.2115 8.64 21.225 9 21.225 12C21.225 15 21.2138 15.36 21.1598 16.5458C21.1513 17.2593 21.0202 17.9662 20.772 18.6353C20.5847 19.1202 20.2981 19.5606 19.9305 19.9282C19.5629 20.2958 19.1225 20.5825 18.6375 20.7698C17.9684 21.0179 17.2616 21.1491 16.548 21.1575C15.3623 21.2115 15.006 21.2228 12.0023 21.2228C8.9985 21.2228 8.64225 21.2115 7.4565 21.1575C6.74291 21.1491 6.0361 21.0179 5.367 20.7698C4.87852 20.5894 4.43668 20.3019 4.074 19.9282C3.70038 19.5656 3.41282 19.1237 3.2325 18.6353C2.98434 17.9662 2.85317 17.2593 2.84475 16.5458C2.7885 15.36 2.775 15.0037 2.775 12C2.775 8.99625 2.78625 8.64 2.84025 7.45425C2.84867 6.74066 2.97984 6.03385 3.228 5.36475C3.40898 4.87606 3.69731 4.4342 4.07175 4.07175C4.43443 3.69813 4.87627 3.41057 5.36475 3.23025C6.03385 2.98209 6.74066 2.85092 7.45425 2.8425C8.64 2.7885 9 2.775 12 2.775ZM12 0.75C8.9445 0.75 8.56125 0.76275 7.362 0.8175C6.42842 0.83728 5.5049 1.01478 4.6305 1.3425C3.88032 1.62483 3.20059 2.06707 2.6385 2.6385C2.06626 3.20037 1.62324 3.88012 1.34025 4.6305C1.01253 5.5049 0.83503 6.42842 0.81525 7.362C0.76275 8.56125 0.75 8.9445 0.75 12C0.75 15.0555 0.76275 15.4388 0.8175 16.638C0.83728 17.5716 1.01478 18.4951 1.3425 19.3695C1.62549 20.1199 2.06851 20.7996 2.64075 21.3615C3.20262 21.9337 3.88237 22.3768 4.63275 22.6597C5.50715 22.9875 6.43067 23.165 7.36425 23.1847C8.56425 23.2395 8.94675 23.2523 12.0023 23.2523C15.0578 23.2523 15.441 23.2395 16.6403 23.1847C17.5738 23.165 18.4974 22.9875 19.3718 22.6597C20.1188 22.3702 20.7972 21.928 21.3638 21.3615C21.9303 20.795 22.3724 20.1165 22.662 19.3695C22.9897 18.4951 23.1672 17.5716 23.187 16.638C23.2418 15.438 23.2545 15.0555 23.2545 12C23.2545 8.9445 23.2418 8.56125 23.187 7.362C23.1672 6.42842 22.9897 5.5049 22.662 4.6305C22.379 3.88012 21.936 3.20037 21.3638 2.6385C20.8019 2.06626 20.1221 1.62324 19.3718 1.34025C18.4974 1.01253 17.5738 0.83503 16.6403 0.81525C15.4388 0.76275 15.0555 0.75 12 0.75Z"/>
        <path d="M12.0001 6.2251C10.8579 6.2251 9.74138 6.5638 8.79168 7.19836C7.84199 7.83293 7.10179 8.73486 6.6647 9.7901C6.2276 10.8453 6.11324 12.0065 6.33607 13.1267C6.55889 14.247 7.10891 15.276 7.91656 16.0836C8.72421 16.8913 9.75321 17.4413 10.8735 17.6641C11.9937 17.887 13.1549 17.7726 14.2101 17.3355C15.2653 16.8984 16.1673 16.1582 16.8018 15.2085C17.4364 14.2588 17.7751 13.1423 17.7751 12.0001C17.7751 10.4685 17.1667 8.99958 16.0836 7.91656C15.0006 6.83353 13.5317 6.2251 12.0001 6.2251ZM12.0001 15.7501C11.2584 15.7501 10.5334 15.5302 9.91671 15.1181C9.30003 14.7061 8.81938 14.1204 8.53555 13.4352C8.25172 12.7499 8.17746 11.9959 8.32215 11.2685C8.46685 10.5411 8.824 9.87289 9.34845 9.34845C9.8729 8.824 10.5411 8.46685 11.2685 8.32215C11.9959 8.17746 12.7499 8.25172 13.4352 8.53555C14.1204 8.81938 14.7061 9.30002 15.1181 9.91671C15.5302 10.5334 15.7501 11.2584 15.7501 12.0001C15.7501 12.9947 15.355 13.9485 14.6518 14.6517C13.9485 15.355 12.9947 15.7501 12.0001 15.7501Z"/>
        <path d="M18.0053 7.34478C18.7509 7.34478 19.3553 6.74036 19.3553 5.99478C19.3553 5.24919 18.7509 4.64478 18.0053 4.64478C17.2597 4.64478 16.6553 5.24919 16.6553 5.99478C16.6553 6.74036 17.2597 7.34478 18.0053 7.34478Z"/>
    </symbol>

    <symbol id="vk" viewBox="0 0 24 24">
        <path d="M23.4493 5.94799C23.6161 5.40154 23.4493 5 22.6553 5H20.0297C19.3621 5 19.0543 5.34687 18.8874 5.72936C18.8874 5.72936 17.5521 8.92607 15.6606 11.0025C15.0487 11.6036 14.7705 11.7949 14.4367 11.7949C14.2698 11.7949 14.0282 11.6036 14.0282 11.0572V5.94799C14.0282 5.29225 13.8345 5 13.2781 5H9.15213C8.73494 5 8.48403 5.30435 8.48403 5.59278C8.48403 6.21441 9.42974 6.35777 9.52722 8.10641V11.9042C9.52722 12.7368 9.37413 12.8878 9.04032 12.8878C8.15023 12.8878 5.98507 9.67682 4.70093 6.00261C4.44927 5.28847 4.19686 5 3.52583 5H0.900217C0.150043 5 0 5.34687 0 5.72936C0 6.41244 0.89014 9.80039 4.14464 14.2812C6.31429 17.3412 9.37118 19 12.1528 19C13.8218 19 14.0283 18.6316 14.0283 17.997V15.6842C14.0283 14.9474 14.1864 14.8003 14.7149 14.8003C15.1043 14.8003 15.7719 14.9916 17.3296 16.467C19.1099 18.2156 19.4034 19 20.4047 19H23.0304C23.7805 19 24.1556 18.6316 23.9392 17.9045C23.7024 17.1799 22.8525 16.1286 21.7247 14.8823C21.1127 14.1719 20.1947 13.4069 19.9165 13.0243C19.5271 12.5326 19.6384 12.314 19.9165 11.8769C19.9165 11.8769 23.1155 7.45067 23.4493 5.94799Z"/>
    </symbol>

    <symbol id="youtube" viewBox="0 0 24 24">
        <path fill-rule="evenodd" clip-rule="evenodd" d="M21.377 4.47636C22.4117 4.74182 23.2249 5.51636 23.4998 6.49818C24 8.28 24 12 24 12C24 12 24 15.72 23.4998 17.5018C23.2211 18.4873 22.4079 19.2618 21.377 19.5236C19.5062 20 12 20 12 20C12 20 4.49761 20 2.62297 19.5236C1.58829 19.2582 0.775056 18.4836 0.500159 17.5018C0 15.72 0 12 0 12C0 12 0 8.28 0.500159 6.49818C0.778874 5.51273 1.59211 4.73818 2.62297 4.47636C4.49761 4 12 4 12 4C12 4 19.5062 4 21.377 4.47636ZM15.8371 12L9.60229 15.4291V8.57091L15.8371 12Z"/>
    </symbol>

    <symbol id="phone" viewBox="0 0 24 24">
        <path d="M21 16.42V19.956C21.0001 20.2092 20.9042 20.453 20.7316 20.6382C20.559 20.8234 20.3226 20.9363 20.07 20.954C19.633 20.984 19.276 21 19 21C10.163 21 3 13.837 3 5C3 4.724 3.015 4.367 3.046 3.93C3.06372 3.67744 3.17658 3.44101 3.3618 3.26841C3.54703 3.09581 3.79082 2.99989 4.044 3H7.58C7.70404 2.99987 7.8237 3.04586 7.91573 3.12902C8.00776 3.21218 8.0656 3.32658 8.078 3.45C8.101 3.68 8.122 3.863 8.142 4.002C8.34073 5.38892 8.748 6.73783 9.35 8.003C9.445 8.203 9.383 8.442 9.203 8.57L7.045 10.112C8.36445 13.1865 10.8145 15.6365 13.889 16.956L15.429 14.802C15.4919 14.714 15.5838 14.6509 15.6885 14.6237C15.7932 14.5964 15.9042 14.6068 16.002 14.653C17.267 15.2539 18.6156 15.6601 20.002 15.858C20.141 15.878 20.324 15.9 20.552 15.922C20.6752 15.9346 20.7894 15.9926 20.8724 16.0846C20.9553 16.1766 21.0012 16.2961 21.001 16.42H21Z"/>

    </symbol>

    <symbol id="mail" viewBox="0 0 24 24">
        <path d="M3 3H21C21.2652 3 21.5196 3.10536 21.7071 3.29289C21.8946 3.48043 22 3.73478 22 4V20C22 20.2652 21.8946 20.5196 21.7071 20.7071C21.5196 20.8946 21.2652 21 21 21H3C2.73478 21 2.48043 20.8946 2.29289 20.7071C2.10536 20.5196 2 20.2652 2 20V4C2 3.73478 2.10536 3.48043 2.29289 3.29289C2.48043 3.10536 2.73478 3 3 3ZM12.06 11.683L5.648 6.238L4.353 7.762L12.073 14.317L19.654 7.757L18.346 6.244L12.061 11.683H12.06Z"/>

    </symbol>

    <symbol id="percent" viewBox="0 0 24 24">
        <path d="M17.5 21C16.5717 21 15.6815 20.6313 15.0251 19.9749C14.3687 19.3185 14 18.4283 14 17.5C14 16.5717 14.3687 15.6815 15.0251 15.0251C15.6815 14.3687 16.5717 14 17.5 14C18.4283 14 19.3185 14.3687 19.9749 15.0251C20.6313 15.6815 21 16.5717 21 17.5C21 18.4283 20.6313 19.3185 19.9749 19.9749C19.3185 20.6313 18.4283 21 17.5 21ZM17.5 19C17.8978 19 18.2794 18.842 18.5607 18.5607C18.842 18.2794 19 17.8978 19 17.5C19 17.1022 18.842 16.7206 18.5607 16.4393C18.2794 16.158 17.8978 16 17.5 16C17.1022 16 16.7206 16.158 16.4393 16.4393C16.158 16.7206 16 17.1022 16 17.5C16 17.8978 16.158 18.2794 16.4393 18.5607C16.7206 18.842 17.1022 19 17.5 19ZM6.5 10C6.04037 10 5.58525 9.90947 5.16061 9.73358C4.73597 9.55769 4.35013 9.29988 4.02513 8.97487C3.70012 8.64987 3.44231 8.26403 3.26642 7.83939C3.09053 7.41475 3 6.95963 3 6.5C3 6.04037 3.09053 5.58525 3.26642 5.16061C3.44231 4.73597 3.70012 4.35013 4.02513 4.02513C4.35013 3.70012 4.73597 3.44231 5.16061 3.26642C5.58525 3.09053 6.04037 3 6.5 3C7.42826 3 8.3185 3.36875 8.97487 4.02513C9.63125 4.6815 10 5.57174 10 6.5C10 7.42826 9.63125 8.3185 8.97487 8.97487C8.3185 9.63125 7.42826 10 6.5 10ZM6.5 8C6.89782 8 7.27936 7.84196 7.56066 7.56066C7.84196 7.27936 8 6.89782 8 6.5C8 6.10218 7.84196 5.72064 7.56066 5.43934C7.27936 5.15804 6.89782 5 6.5 5C6.10218 5 5.72064 5.15804 5.43934 5.43934C5.15804 5.72064 5 6.10218 5 6.5C5 6.89782 5.15804 7.27936 5.43934 7.56066C5.72064 7.84196 6.10218 8 6.5 8ZM19.071 3.515L20.485 4.929L4.93 20.485L3.516 19.071L19.07 3.515H19.071Z"/>
    </symbol>

    <symbol id="location" viewBox="0 0 24 24">
        <path d="M12 20.8999L16.95 15.9499C17.9289 14.9709 18.5955 13.7236 18.8656 12.3658C19.1356 11.0079 18.9969 9.60052 18.4671 8.32148C17.9373 7.04244 17.04 5.94923 15.8889 5.18009C14.7378 4.41095 13.3844 4.00043 12 4.00043C10.6156 4.00043 9.26222 4.41095 8.11109 5.18009C6.95996 5.94923 6.06275 7.04244 5.53292 8.32148C5.00308 9.60052 4.86442 11.0079 5.13445 12.3658C5.40449 13.7236 6.07111 14.9709 7.05 15.9499L12 20.8999ZM12 23.7279L5.636 17.3639C4.37734 16.1052 3.52019 14.5016 3.17293 12.7558C2.82567 11.0099 3.00391 9.20035 3.6851 7.55582C4.36629 5.91129 5.51984 4.50569 6.99988 3.51677C8.47992 2.52784 10.22 2 12 2C13.78 2 15.5201 2.52784 17.0001 3.51677C18.4802 4.50569 19.6337 5.91129 20.3149 7.55582C20.9961 9.20035 21.1743 11.0099 20.8271 12.7558C20.4798 14.5016 19.6227 16.1052 18.364 17.3639L12 23.7279ZM12 12.9999C12.5304 12.9999 13.0391 12.7892 13.4142 12.4141C13.7893 12.0391 14 11.5304 14 10.9999C14 10.4695 13.7893 9.96078 13.4142 9.58571C13.0391 9.21064 12.5304 8.99992 12 8.99992C11.4696 8.99992 10.9609 9.21064 10.5858 9.58571C10.2107 9.96078 10 10.4695 10 10.9999C10 11.5304 10.2107 12.0391 10.5858 12.4141C10.9609 12.7892 11.4696 12.9999 12 12.9999ZM12 14.9999C10.9391 14.9999 9.92172 14.5785 9.17158 13.8283C8.42143 13.0782 8 12.0608 8 10.9999C8 9.93906 8.42143 8.92164 9.17158 8.17149C9.92172 7.42135 10.9391 6.99992 12 6.99992C13.0609 6.99992 14.0783 7.42135 14.8284 8.17149C15.5786 8.92164 16 9.93906 16 10.9999C16 12.0608 15.5786 13.0782 14.8284 13.8283C14.0783 14.5785 13.0609 14.9999 12 14.9999Z"/>
    </symbol>

    <symbol id="close" viewBox="0 0 14 14">
        <path d="M6.99999 5.58599L11.95 0.635986L13.364 2.04999L8.41399 6.99999L13.364 11.95L11.95 13.364L6.99999 8.41399L2.04999 13.364L0.635986 11.95L5.58599 6.99999L0.635986 2.04999L2.04999 0.635986L6.99999 5.58599Z"/>
    </symbol>

    <symbol id="triggers" viewBox="0 0 48 48">
        <path d="M41.5502 29.2688C41.1677 29.0447 40.678 29.1728 40.4555 29.5544L31.2823 45.1999C30.6196 46.3466 29.1497 46.742 28.0381 46.1002L26.2512 44.9422C25.8799 44.7013 25.3845 44.807 25.1444 45.1783C24.9035 45.5488 25.0099 46.0449 25.3804 46.285L27.2026 47.4646C27.8308 47.8279 28.5182 47.9999 29.1968 47.9999C30.5804 47.9999 31.9264 47.2838 32.665 46.0049L41.8349 30.3634C42.0583 29.9825 41.9312 29.492 41.5502 29.2688Z"/>
<path d="M43.9709 0H31.167C28.6911 0 26.8466 0.788206 24.9996 2.63517C24.6868 2.94811 24.6868 3.45385 24.9996 3.7667C25.3126 4.07963 25.8183 4.07963 26.1311 3.7667C27.69 2.20782 29.1024 1.60042 31.167 1.60042H43.9709C45.2944 1.60042 46.3716 2.67756 46.3716 4.00114V16.8051C46.3716 18.8705 45.7642 20.2821 44.2045 21.8409L20.439 45.6402C19.5315 46.5461 17.9502 46.5468 17.0444 45.6402L2.33193 30.9277C1.87823 30.474 1.62849 29.8714 1.62849 29.2295C1.62849 28.5886 1.87813 27.9859 2.33108 27.533L23.8112 6.08339C24.1416 6.16742 24.473 6.25144 24.8163 6.34344C28.0717 7.21567 30.6405 8.11679 32.5554 8.92103C32.1785 9.61883 31.9672 10.4007 31.9672 11.2033C31.9672 13.8513 34.1207 16.0048 36.7687 16.0048C39.4167 16.0048 41.5701 13.8513 41.5701 11.2033C41.5701 8.55529 39.4167 6.40186 36.7687 6.40186C36.3261 6.40186 35.9685 6.76038 35.9685 7.20207C35.9685 7.64377 36.3261 8.00228 36.7687 8.00228C38.5341 8.00228 39.9696 9.43793 39.9696 11.2032C39.9696 12.9686 38.534 14.4041 36.7687 14.4041C35.0034 14.4041 33.5678 12.9685 33.5678 11.2032C33.5678 10.627 33.7254 10.0645 34.0159 9.57475C35.402 10.2381 36.2686 10.7975 36.6111 11.1544C36.4647 11.1961 36.2382 11.2425 35.8965 11.272C35.4564 11.3112 35.1308 11.6994 35.17 12.1395C35.2068 12.5556 35.5557 12.8701 35.9662 12.8701C35.9894 12.8701 36.0134 12.8685 36.0374 12.8669C36.5296 12.823 38.0268 12.6909 38.3149 11.6177C39.1031 8.67364 27.5533 5.41982 25.2301 4.79722C21.6762 3.84491 18.2632 3.19352 15.6184 2.96311C12.3686 2.67906 10.7857 3.04873 10.4881 4.16103C10.3456 4.69482 9.96556 6.11199 16.4539 8.67036C16.8645 8.83278 17.3302 8.63116 17.4918 8.21985C17.6535 7.80854 17.4518 7.34358 17.0405 7.18191C13.9059 5.94554 12.6071 5.03964 12.191 4.61314C13.1777 4.32346 16.5524 4.40748 21.9868 5.64301L1.2004 26.4007C0.44417 27.1569 0.0280762 28.1612 0.0280762 29.2295C0.0280762 30.2987 0.44417 31.3037 1.2004 32.0592L15.9128 46.7716C16.6674 47.527 17.6725 47.9432 18.7409 47.9432C19.81 47.9432 20.8143 47.5271 21.5705 46.7709L45.3368 22.9725C47.1845 21.1255 47.972 19.281 47.972 16.8051V4.00124C47.9721 1.79491 46.1772 0 43.9709 0Z"/>
<path d="M26.2015 21.0409C25.8886 20.7279 25.3828 20.7279 25.0699 21.0409L24.6378 21.473C24.0048 21.0537 23.2494 20.8064 22.4348 20.8064C20.2285 20.8064 18.4335 22.6013 18.4335 24.8076C18.4335 26 18.9257 26.9427 19.3546 27.6317C19.7548 28.2743 20.034 29.1897 20.034 29.6091C20.034 30.9327 18.9569 32.0098 17.6333 32.0098C16.3097 32.0098 15.2326 30.9327 15.2326 29.6091C15.2326 29.1233 15.3774 28.6552 15.6511 28.2551C15.9008 27.891 15.8072 27.3925 15.443 27.1428C15.0782 26.8939 14.5804 26.9868 14.3307 27.3509C13.8738 28.0183 13.6321 28.7993 13.6321 29.6092C13.6321 30.4238 13.8794 31.1792 14.2987 31.8122L13.8665 32.2443C13.5536 32.5572 13.5536 33.063 13.8665 33.3759C14.0226 33.5319 14.2275 33.6103 14.4323 33.6103C14.6372 33.6103 14.842 33.5319 14.9981 33.3759L15.4302 32.9437C16.0632 33.363 16.8186 33.6103 17.6332 33.6103C19.8395 33.6103 21.6345 31.8154 21.6345 29.6091C21.6345 28.8297 21.2472 27.6421 20.7134 26.7851C20.2373 26.0209 20.034 25.4295 20.034 24.8076C20.034 23.4841 21.1111 22.4069 22.4347 22.4069C23.0765 22.4069 23.6566 22.663 24.0871 23.0751C24.1007 23.0895 24.1055 23.1087 24.1191 23.1231C24.1336 23.1367 24.1527 23.1415 24.1671 23.1551C24.5793 23.5856 24.8353 24.1658 24.8353 24.8075C24.8353 25.4493 24.5848 26.0535 24.1303 26.508C23.8173 26.8201 23.8173 27.3267 24.1294 27.6396C24.4407 27.9525 24.9481 27.9517 25.261 27.6404C26.018 26.8833 26.4357 25.8775 26.4357 24.8075C26.4357 23.9929 26.1884 23.2375 25.7691 22.6045L26.2013 22.1724C26.5144 21.8595 26.5144 21.3537 26.2015 21.0409Z"/>
    </symbol>

    <symbol id="arrow-right" viewBox="0 0 16 16">
        <path d="M8.78145 7.99999L5.48145 4.69999L6.42411 3.75732L10.6668 7.99999L6.42411 12.2427L5.48145 11.3L8.78145 7.99999Z"/>

    </symbol>

    <symbol id="product-favorite" viewBox="0 0 24 24">
        <path d="M11.2929 5.70711L12 6.41421L12.7071 5.70711C13.5873 4.82693 14.9877 4 16.5 4C18.9251 4 21 5.98969 21 9C21 12.1132 19.3374 14.6182 17.2515 16.5849C15.4145 18.3169 13.3471 19.5421 12 20.3374C10.6529 19.5421 8.58547 18.3169 6.74851 16.5849C4.66262 14.6182 3 12.1132 3 9C3 5.99431 5.10853 4 7.5 4C9.01232 4 10.4127 4.82693 11.2929 5.70711Z" stroke-width="2"/>
    </symbol>

    <symbol id="minus" viewBox="0 0 24 24">
        <path d="M5 11H19V13H5V11Z"/>
    </symbol>

    <symbol id="plus" viewBox="0 0 24 24">
        <path d="M11 11V5H13V11H19V13H13V19H11V13H5V11H11Z"/>
    </symbol>

    <symbol id="orange-arrow" viewBox="0 0 24 24">
        <path d="M16.2929 16.2929C15.9024 16.6834 15.9024 17.3166 16.2929 17.7071C16.6834 18.0976 17.3166 18.0976 17.7071 17.7071L22.7071 12.7071C23.0976 12.3166 23.0976 11.6834 22.7071 11.2929L17.7071 6.29289C17.3166 5.90237 16.6834 5.90237 16.2929 6.29289C15.9024 6.68342 15.9024 7.31658 16.2929 7.70711L19.5858 11H2C1.44772 11 1 11.4477 1 12C1 12.5523 1.44772 13 2 13H19.5858L16.2929 16.2929Z"/>

    </symbol>

    <symbol id="dialog" viewBox="0 0 24 24">
        <path d="M7.29101 20.824L2.00001 22L3.17601 16.709C2.40154 15.2604 1.99754 13.6426 2.00001 12C2.00001 6.477 6.47701 2 12 2C17.523 2 22 6.477 22 12C22 17.523 17.523 22 12 22C10.3574 22.0025 8.73963 21.5985 7.29101 20.824ZM7.58101 18.711L8.23401 19.061C9.39256 19.6801 10.6864 20.0027 12 20C13.5823 20 15.129 19.5308 16.4446 18.6518C17.7602 17.7727 18.7855 16.5233 19.391 15.0615C19.9965 13.5997 20.155 11.9911 19.8463 10.4393C19.5376 8.88743 18.7757 7.46197 17.6569 6.34315C16.538 5.22433 15.1126 4.4624 13.5607 4.15372C12.0089 3.84504 10.4004 4.00346 8.93854 4.60896C7.47674 5.21447 6.22731 6.23984 5.34825 7.55544C4.4692 8.87103 4.00001 10.4177 4.00001 12C4.00001 13.334 4.32501 14.618 4.94001 15.766L5.28901 16.419L4.63401 19.366L7.58101 18.711Z"/>
        <path d="M13 11H11V13H13V11Z"/>
        <path d="M9 11H7V13H9V11Z"/>
        <path d="M17 11H15V13H17V11Z"/>
    </symbol>

    <symbol id="accordion-footer" viewBox="0 0 24 24">
        <path d="M12.0002 13.172L16.9502 8.222L18.3642 9.636L12.0002 16L5.63623 9.636L7.05023 8.222L12.0002 13.172Z"/>
    </symbol>

   

    <symbol id="category-cards" viewBox="0 0 24 24">
        <path d="M3 3H11V11H3V3ZM3 13H11V21H3V13ZM13 3H21V11H13V3ZM13 13H21V21H13V13ZM15 5V9H19V5H15ZM15 15V19H19V15H15ZM5 5V9H9V5H5ZM5 15V19H9V15H5Z"/>
    </symbol>

    <symbol id="category-list" viewBox="0 0 24 24">
        <path d="M8 4H21V6H8V4ZM4.5 6.5C4.10218 6.5 3.72064 6.34196 3.43934 6.06066C3.15804 5.77936 3 5.39782 3 5C3 4.60218 3.15804 4.22064 3.43934 3.93934C3.72064 3.65804 4.10218 3.5 4.5 3.5C4.89782 3.5 5.27936 3.65804 5.56066 3.93934C5.84196 4.22064 6 4.60218 6 5C6 5.39782 5.84196 5.77936 5.56066 6.06066C5.27936 6.34196 4.89782 6.5 4.5 6.5ZM4.5 13.5C4.10218 13.5 3.72064 13.342 3.43934 13.0607C3.15804 12.7794 3 12.3978 3 12C3 11.6022 3.15804 11.2206 3.43934 10.9393C3.72064 10.658 4.10218 10.5 4.5 10.5C4.89782 10.5 5.27936 10.658 5.56066 10.9393C5.84196 11.2206 6 11.6022 6 12C6 12.3978 5.84196 12.7794 5.56066 13.0607C5.27936 13.342 4.89782 13.5 4.5 13.5ZM4.5 20.4C4.10218 20.4 3.72064 20.242 3.43934 19.9607C3.15804 19.6794 3 19.2978 3 18.9C3 18.5022 3.15804 18.1206 3.43934 17.8393C3.72064 17.558 4.10218 17.4 4.5 17.4C4.89782 17.4 5.27936 17.558 5.56066 17.8393C5.84196 18.1206 6 18.5022 6 18.9C6 19.2978 5.84196 19.6794 5.56066 19.9607C5.27936 20.242 4.89782 20.4 4.5 20.4ZM8 11H21V13H8V11ZM8 18H21V20H8V18Z"/>
    </symbol>

    
    <symbol id="share" viewBox="0 0 24 24">
        <path d="M10 3.5V5.5H5V19.5H19V14.5H21V20.5C21 20.7652 20.8946 21.0196 20.7071 21.2071C20.5196 21.3946 20.2652 21.5 20 21.5H4C3.73478 21.5 3.48043 21.3946 3.29289 21.2071C3.10536 21.0196 3 20.7652 3 20.5V4.5C3 4.23478 3.10536 3.98043 3.29289 3.79289C3.48043 3.60536 3.73478 3.5 4 3.5H10ZM17.586 5.5H13V3.5H21V11.5H19V6.914L12 13.914L10.586 12.5L17.586 5.5Z"/>
    </symbol>

    <symbol id="arow-right" viewBox="0 0 24 24">
        
    </symbol>

    <symbol id="arow-right" viewBox="0 0 24 24">
        
    </symbol>

    <symbol id="arow-right" viewBox="0 0 24 24">
        
    </symbol>

    <symbol id="arow-right" viewBox="0 0 24 24">
        
    </symbol>

    <symbol id="arow-right" viewBox="0 0 24 24">
        
    </symbol>

     <symbol id="location-bg" viewBox="0 0 24 24">
        <path d="M18.364 17.3639L12 23.7279L5.636 17.3639C4.37734 16.1052 3.52019 14.5016 3.17293 12.7558C2.82567 11.0099 3.00391 9.20035 3.6851 7.55582C4.36629 5.91129 5.51984 4.50569 6.99988 3.51677C8.47992 2.52784 10.22 2 12 2C13.78 2 15.5201 2.52784 17.0001 3.51677C18.4802 4.50569 19.6337 5.91129 20.3149 7.55582C20.9961 9.20035 21.1743 11.0099 20.8271 12.7558C20.4798 14.5016 19.6227 16.1052 18.364 17.3639ZM12 12.9999C12.5304 12.9999 13.0391 12.7892 13.4142 12.4141C13.7893 12.0391 14 11.5304 14 10.9999C14 10.4695 13.7893 9.96078 13.4142 9.58571C13.0391 9.21064 12.5304 8.99992 12 8.99992C11.4696 8.99992 10.9609 9.21064 10.5858 9.58571C10.2107 9.96078 10 10.4695 10 10.9999C10 11.5304 10.2107 12.0391 10.5858 12.4141C10.9609 12.7892 11.4696 12.9999 12 12.9999Z/">
    </symbol>
</svg>