<svg version="1.1" xmlns="http://www.w3.org/2000/svg" xmlns:xlink="http://www.w3.org/1999/xlink">
    <symbol id="profile" viewBox="0 0 24 24">
        <path d="M4 22C4 19.8783 4.84285 17.8434 6.34315 16.3431C7.84344 14.8429 9.87827 14 12 14C14.1217 14 16.1566 14.8429 17.6569 16.3431C19.1571 17.8434 20 19.8783 20 22H18C18 20.4087 17.3679 18.8826 16.2426 17.7574C15.1174 16.6321 13.5913 16 12 16C10.4087 16 8.88258 16.6321 7.75736 17.7574C6.63214 18.8826 6 20.4087 6 22H4ZM12 13C8.685 13 6 10.315 6 7C6 3.685 8.685 1 12 1C15.315 1 18 3.685 18 7C18 10.315 15.315 13 12 13ZM12 11C14.21 11 16 9.21 16 7C16 4.79 14.21 3 12 3C9.79 3 8 4.79 8 7C8 9.21 9.79 11 12 11Z"/>
    </symbol>
 
    <symbol id="favorite" viewBox="0 0 24 24">
        <path d="M16.5 3C19.538 3 22 5.5 22 9C22 16 14.5 20 12 21.5C9.5 20 2 16 2 9C2 5.5 4.5 3 7.5 3C9.36 3 11 4 12 5C13 4 14.64 3 16.5 3ZM12.934 18.604C13.815 18.048 14.61 17.495 15.354 16.903C18.335 14.533 20 11.943 20 9C20 6.64 18.463 5 16.5 5C15.424 5 14.26 5.57 13.414 6.414L12 7.828L10.586 6.414C9.74 5.57 8.576 5 7.5 5C5.56 5 4 6.656 4 9C4 11.944 5.666 14.533 8.645 16.903C9.39 17.495 10.185 18.048 11.066 18.603C11.365 18.792 11.661 18.973 12 19.175C12.339 18.973 12.635 18.792 12.934 18.604Z"/>
    </symbol>

    <symbol id="cart" viewBox="0 0 24 24">
        <path d="M4.00008 6.41408L0.75708 3.17208L2.17208 1.75708L5.41408 5.00008H20.6561C20.8119 5.00007 20.9657 5.03649 21.1049 5.10645C21.2442 5.1764 21.3652 5.27794 21.4583 5.40298C21.5514 5.52801 21.6139 5.67306 21.641 5.82657C21.668 5.98007 21.6588 6.13777 21.6141 6.28708L19.2141 14.2871C19.1523 14.4932 19.0258 14.6738 18.8532 14.8023C18.6806 14.9307 18.4712 15.0001 18.2561 15.0001H6.00008V17.0001H17.0001V19.0001H5.00008C4.73486 19.0001 4.48051 18.8947 4.29297 18.7072C4.10544 18.5197 4.00008 18.2653 4.00008 18.0001V6.41408ZM6.00008 7.00008V13.0001H17.5121L19.3121 7.00008H6.00008ZM5.50008 23.0001C5.10226 23.0001 4.72072 22.842 4.43942 22.5607C4.15812 22.2794 4.00008 21.8979 4.00008 21.5001C4.00008 21.1023 4.15812 20.7207 4.43942 20.4394C4.72072 20.1581 5.10226 20.0001 5.50008 20.0001C5.8979 20.0001 6.27944 20.1581 6.56074 20.4394C6.84204 20.7207 7.00008 21.1023 7.00008 21.5001C7.00008 21.8979 6.84204 22.2794 6.56074 22.5607C6.27944 22.842 5.8979 23.0001 5.50008 23.0001ZM17.5001 23.0001C17.1023 23.0001 16.7207 22.842 16.4394 22.5607C16.1581 22.2794 16.0001 21.8979 16.0001 21.5001C16.0001 21.1023 16.1581 20.7207 16.4394 20.4394C16.7207 20.1581 17.1023 20.0001 17.5001 20.0001C17.8979 20.0001 18.2794 20.1581 18.5607 20.4394C18.842 20.7207 19.0001 21.1023 19.0001 21.5001C19.0001 21.8979 18.842 22.2794 18.5607 22.5607C18.2794 22.842 17.8979 23.0001 17.5001 23.0001Z"/>
    </symbol>

    <symbol id="compare" viewBox="0 0 24 24">
        <path d="M1.5 9H3.5V21H1.5V9ZM7.5 3H9.5V21H7.5V3ZM13.5 12H15.5V21H13.5V12ZM19.5 6H21.5V21H19.5V6Z"/>
    </symbol>

    <symbol id="search" viewBox="0 0 24 24">
        <path d="M18.031 16.617L22.314 20.899L20.899 22.314L16.617 18.031C15.0237 19.3082 13.042 20.0029 11 20C6.032 20 2 15.968 2 11C2 6.032 6.032 2 11 2C15.968 2 20 6.032 20 11C20.0029 13.042 19.3082 15.0237 18.031 16.617ZM16.025 15.875C17.2941 14.5699 18.0029 12.8204 18 11C18 7.132 14.867 4 11 4C7.132 4 4 7.132 4 11C4 14.867 7.132 18 11 18C12.8204 18.0029 14.5699 17.2941 15.875 16.025L16.025 15.875Z"/>
    </symbol>

    <symbol id="insta" viewBox="0 0 24 24">
        <path d="M12 2.775C15 2.775 15.36 2.78625 16.5458 2.84025C17.2593 2.84867 17.9662 2.97984 18.6353 3.228C19.1237 3.40832 19.5656 3.69588 19.9283 4.0695C20.3019 4.43218 20.5894 4.87402 20.7698 5.3625C21.0179 6.0316 21.1491 6.73841 21.1575 7.452C21.2115 8.64 21.225 9 21.225 12C21.225 15 21.2138 15.36 21.1598 16.5458C21.1513 17.2593 21.0202 17.9662 20.772 18.6353C20.5847 19.1202 20.2981 19.5606 19.9305 19.9282C19.5629 20.2958 19.1225 20.5825 18.6375 20.7698C17.9684 21.0179 17.2616 21.1491 16.548 21.1575C15.3623 21.2115 15.006 21.2228 12.0023 21.2228C8.9985 21.2228 8.64225 21.2115 7.4565 21.1575C6.74291 21.1491 6.0361 21.0179 5.367 20.7698C4.87852 20.5894 4.43668 20.3019 4.074 19.9282C3.70038 19.5656 3.41282 19.1237 3.2325 18.6353C2.98434 17.9662 2.85317 17.2593 2.84475 16.5458C2.7885 15.36 2.775 15.0037 2.775 12C2.775 8.99625 2.78625 8.64 2.84025 7.45425C2.84867 6.74066 2.97984 6.03385 3.228 5.36475C3.40898 4.87606 3.69731 4.4342 4.07175 4.07175C4.43443 3.69813 4.87627 3.41057 5.36475 3.23025C6.03385 2.98209 6.74066 2.85092 7.45425 2.8425C8.64 2.7885 9 2.775 12 2.775ZM12 0.75C8.9445 0.75 8.56125 0.76275 7.362 0.8175C6.42842 0.83728 5.5049 1.01478 4.6305 1.3425C3.88032 1.62483 3.20059 2.06707 2.6385 2.6385C2.06626 3.20037 1.62324 3.88012 1.34025 4.6305C1.01253 5.5049 0.83503 6.42842 0.81525 7.362C0.76275 8.56125 0.75 8.9445 0.75 12C0.75 15.0555 0.76275 15.4388 0.8175 16.638C0.83728 17.5716 1.01478 18.4951 1.3425 19.3695C1.62549 20.1199 2.06851 20.7996 2.64075 21.3615C3.20262 21.9337 3.88237 22.3768 4.63275 22.6597C5.50715 22.9875 6.43067 23.165 7.36425 23.1847C8.56425 23.2395 8.94675 23.2523 12.0023 23.2523C15.0578 23.2523 15.441 23.2395 16.6403 23.1847C17.5738 23.165 18.4974 22.9875 19.3718 22.6597C20.1188 22.3702 20.7972 21.928 21.3638 21.3615C21.9303 20.795 22.3724 20.1165 22.662 19.3695C22.9897 18.4951 23.1672 17.5716 23.187 16.638C23.2418 15.438 23.2545 15.0555 23.2545 12C23.2545 8.9445 23.2418 8.56125 23.187 7.362C23.1672 6.42842 22.9897 5.5049 22.662 4.6305C22.379 3.88012 21.936 3.20037 21.3638 2.6385C20.8019 2.06626 20.1221 1.62324 19.3718 1.34025C18.4974 1.01253 17.5738 0.83503 16.6403 0.81525C15.4388 0.76275 15.0555 0.75 12 0.75Z"/>
        <path d="M12.0001 6.2251C10.8579 6.2251 9.74138 6.5638 8.79168 7.19836C7.84199 7.83293 7.10179 8.73486 6.6647 9.7901C6.2276 10.8453 6.11324 12.0065 6.33607 13.1267C6.55889 14.247 7.10891 15.276 7.91656 16.0836C8.72421 16.8913 9.75321 17.4413 10.8735 17.6641C11.9937 17.887 13.1549 17.7726 14.2101 17.3355C15.2653 16.8984 16.1673 16.1582 16.8018 15.2085C17.4364 14.2588 17.7751 13.1423 17.7751 12.0001C17.7751 10.4685 17.1667 8.99958 16.0836 7.91656C15.0006 6.83353 13.5317 6.2251 12.0001 6.2251ZM12.0001 15.7501C11.2584 15.7501 10.5334 15.5302 9.91671 15.1181C9.30003 14.7061 8.81938 14.1204 8.53555 13.4352C8.25172 12.7499 8.17746 11.9959 8.32215 11.2685C8.46685 10.5411 8.824 9.87289 9.34845 9.34845C9.8729 8.824 10.5411 8.46685 11.2685 8.32215C11.9959 8.17746 12.7499 8.25172 13.4352 8.53555C14.1204 8.81938 14.7061 9.30002 15.1181 9.91671C15.5302 10.5334 15.7501 11.2584 15.7501 12.0001C15.7501 12.9947 15.355 13.9485 14.6518 14.6517C13.9485 15.355 12.9947 15.7501 12.0001 15.7501Z"/>
        <path d="M18.0053 7.34478C18.7509 7.34478 19.3553 6.74036 19.3553 5.99478C19.3553 5.24919 18.7509 4.64478 18.0053 4.64478C17.2597 4.64478 16.6553 5.24919 16.6553 5.99478C16.6553 6.74036 17.2597 7.34478 18.0053 7.34478Z"/>
    </symbol>

    <symbol id="vk" viewBox="0 0 24 24">
        <path d="M23.4493 5.94799C23.6161 5.40154 23.4493 5 22.6553 5H20.0297C19.3621 5 19.0543 5.34687 18.8874 5.72936C18.8874 5.72936 17.5521 8.92607 15.6606 11.0025C15.0487 11.6036 14.7705 11.7949 14.4367 11.7949C14.2698 11.7949 14.0282 11.6036 14.0282 11.0572V5.94799C14.0282 5.29225 13.8345 5 13.2781 5H9.15213C8.73494 5 8.48403 5.30435 8.48403 5.59278C8.48403 6.21441 9.42974 6.35777 9.52722 8.10641V11.9042C9.52722 12.7368 9.37413 12.8878 9.04032 12.8878C8.15023 12.8878 5.98507 9.67682 4.70093 6.00261C4.44927 5.28847 4.19686 5 3.52583 5H0.900217C0.150043 5 0 5.34687 0 5.72936C0 6.41244 0.89014 9.80039 4.14464 14.2812C6.31429 17.3412 9.37118 19 12.1528 19C13.8218 19 14.0283 18.6316 14.0283 17.997V15.6842C14.0283 14.9474 14.1864 14.8003 14.7149 14.8003C15.1043 14.8003 15.7719 14.9916 17.3296 16.467C19.1099 18.2156 19.4034 19 20.4047 19H23.0304C23.7805 19 24.1556 18.6316 23.9392 17.9045C23.7024 17.1799 22.8525 16.1286 21.7247 14.8823C21.1127 14.1719 20.1947 13.4069 19.9165 13.0243C19.5271 12.5326 19.6384 12.314 19.9165 11.8769C19.9165 11.8769 23.1155 7.45067 23.4493 5.94799Z"/>
    </symbol>

    <symbol id="youtube" viewBox="0 0 24 24">
        <path d="M21.377 4.47636C22.4117 4.74182 23.2249 5.51636 23.4998 6.49818C24 8.28 24 12 24 12C24 12 24 15.72 23.4998 17.5018C23.2211 18.4873 22.4079 19.2618 21.377 19.5236C19.5062 20 12 20 12 20C12 20 4.49761 20 2.62297 19.5236C1.58829 19.2582 0.775056 18.4836 0.500159 17.5018C0 15.72 0 12 0 12C0 12 0 8.28 0.500159 6.49818C0.778874 5.51273 1.59211 4.73818 2.62297 4.47636C4.49761 4 12 4 12 4C12 4 19.5062 4 21.377 4.47636ZM15.8371 12L9.60229 15.4291V8.57091L15.8371 12Z"/>
    </symbol>

    <symbol id="phone" viewBox="0 0 24 24">
        <path d="M21 16.42V19.956C21.0001 20.2092 20.9042 20.453 20.7316 20.6382C20.559 20.8234 20.3226 20.9363 20.07 20.954C19.633 20.984 19.276 21 19 21C10.163 21 3 13.837 3 5C3 4.724 3.015 4.367 3.046 3.93C3.06372 3.67744 3.17658 3.44101 3.3618 3.26841C3.54703 3.09581 3.79082 2.99989 4.044 3H7.58C7.70404 2.99987 7.8237 3.04586 7.91573 3.12902C8.00776 3.21218 8.0656 3.32658 8.078 3.45C8.101 3.68 8.122 3.863 8.142 4.002C8.34073 5.38892 8.748 6.73783 9.35 8.003C9.445 8.203 9.383 8.442 9.203 8.57L7.045 10.112C8.36445 13.1865 10.8145 15.6365 13.889 16.956L15.429 14.802C15.4919 14.714 15.5838 14.6509 15.6885 14.6237C15.7932 14.5964 15.9042 14.6068 16.002 14.653C17.267 15.2539 18.6156 15.6601 20.002 15.858C20.141 15.878 20.324 15.9 20.552 15.922C20.6752 15.9346 20.7894 15.9926 20.8724 16.0846C20.9553 16.1766 21.0012 16.2961 21.001 16.42H21Z"/>

    </symbol>

    <symbol id="mail" viewBox="0 0 24 24">
        <path d="M3 3H21C21.2652 3 21.5196 3.10536 21.7071 3.29289C21.8946 3.48043 22 3.73478 22 4V20C22 20.2652 21.8946 20.5196 21.7071 20.7071C21.5196 20.8946 21.2652 21 21 21H3C2.73478 21 2.48043 20.8946 2.29289 20.7071C2.10536 20.5196 2 20.2652 2 20V4C2 3.73478 2.10536 3.48043 2.29289 3.29289C2.48043 3.10536 2.73478 3 3 3ZM12.06 11.683L5.648 6.238L4.353 7.762L12.073 14.317L19.654 7.757L18.346 6.244L12.061 11.683H12.06Z"/>

    </symbol>

    <symbol id="search" viewBox="0 0 24 24">
        
    </symbol>

    <symbol id="search" viewBox="0 0 24 24">
        
    </symbol>

    <symbol id="search" viewBox="0 0 24 24">
        
    </symbol>

    <symbol id="search" viewBox="0 0 24 24">
        
    </symbol>

    <symbol id="search" viewBox="0 0 24 24">
        
    </symbol>
</svg>